<?xml version="1.0" encoding="utf-8"?>
<!-- Generator: Adobe Illustrator 24.1.1, SVG Export Plug-In . SVG Version: 6.00 Build 0)  -->
<svg version="1.1" id="Camada_1" xmlns="http://www.w3.org/2000/svg" xmlns:xlink="http://www.w3.org/1999/xlink" x="0px" y="0px"
	 viewBox="0 0 600 300" style="enable-background:new 0 0 600 300;" xml:space="preserve">
<style type="text/css">
	.st0{fill:#333333;}
</style>
<g>
	<g>
		<rect x="33.2" y="282.7" class="st0" width="545.6" height="1.3"/>
		<rect x="30.8" y="282.7" class="st0" width="1.2" height="1.3"/>
		<rect x="29.6" y="282.7" class="st0" width="1.2" height="1.3"/>
		<rect x="27.2" y="282.7" class="st0" width="1.2" height="1.3"/>
		<rect x="24.8" y="282.7" class="st0" width="1.2" height="1.3"/>
		<rect x="24.8" y="282.7" class="st0" width="1.2" height="1.3"/>
		<rect x="23.6" y="282.7" class="st0" width="1.2" height="1.3"/>
		<rect x="21.2" y="282.7" class="st0" width="1.2" height="1.3"/>
		<rect x="18.8" y="282.7" class="st0" width="1.2" height="1.3"/>
		<rect x="580.1" y="282.7" class="st0" width="1.2" height="1.3"/>
	</g>
	<g>
		<rect x="21.1" y="286.2" class="st0" width="545.6" height="1.3"/>
		<rect x="567.9" y="286.2" class="st0" width="1.2" height="1.3"/>
		<rect x="569.1" y="286.2" class="st0" width="1.2" height="1.3"/>
		<rect x="571.6" y="286.2" class="st0" width="1.2" height="1.3"/>
		<rect x="574" y="286.2" class="st0" width="1.2" height="1.3"/>
		<rect x="574" y="286.2" class="st0" width="1.2" height="1.3"/>
		<rect x="575.2" y="286.2" class="st0" width="1.2" height="1.3"/>
		<rect x="577.7" y="286.2" class="st0" width="1.2" height="1.3"/>
		<rect x="580.1" y="286.2" class="st0" width="1.2" height="1.3"/>
		<rect x="18.8" y="286.2" class="st0" width="1.2" height="1.3"/>
	</g>
</g>
<g>
	<g>
		<path class="st0" d="M300.9,59.5c-1.2-0.8-7.9-5-22.9-14.4c-1.6-1-14.9-8.3-18.7-9.6c0,0-0.1,12.4,36,35.1c0,0,0.8,0.6,1.3-0.4
			c0.4-0.7,0.9-2.6,5.1-3c0.1,0,0.2,0.1,0.3,0.1c0.8,0.2,2.6,2,4.7,3.4c1.4,0.9,2.8,1.9,4,2.6c3.4,2.1,5.2,2.3,5.8,3.1
			c0.6,0.7,1.6,1.7,2.6,2.3c0.9,0.6,1.8,0.9,2.5,0.7c1.5-0.5,1.4-3.5,0.9-5.5c-0.2-0.7-0.8-1.3-1.7-1.8l-15.2-9.5
			c-0.9-0.6-3.7-2.3-4.7-2.9C300.9,59.5,300.9,59.5,300.9,59.5z"/>
		<g>
			<path class="st0" d="M289.1,68.8c-0.9,0.5-1.7,0.9-2.6,1.4c-0.8,0.4-1.6,0.9-2.4,1.4s-1.6,1-2.3,1.5c-0.4,0.3-0.7,0.6-1.1,0.9
				c-0.2,0.1-0.4,0.3-0.5,0.4c-0.2,0.2-0.4,0.3-0.5,0.5c-0.3,0.3-0.7,0.7-1,1.1c-0.2,0.2-0.3,0.4-0.4,0.6s-0.3,0.5-0.4,0.7
				c-0.1,0.1-0.1,0.3-0.1,0.5c-0.1,0.8,0.5,1.5,1.2,1.6c0.3,0,0.5,0,0.8,0c0.2,0,0.5,0,0.7-0.1c0.5-0.1,0.9-0.2,1.3-0.4
				c0.2-0.1,0.4-0.2,0.6-0.3c0.2-0.1,0.4-0.2,0.6-0.3c0.4-0.2,0.8-0.4,1.2-0.6c0.8-0.4,1.6-0.9,2.3-1.4c0.8-0.5,1.5-1,2.3-1.6
				c1.5-1,3-2.1,4.4-3.2C292,70.6,290.5,69.7,289.1,68.8z"/>
			<path class="st0" d="M296.3,65.2c-0.8,0.4-1.6,0.8-2.4,1.2l-2.4,1.2c-0.1,0.1-0.3,0.1-0.4,0.2c1.1,0.7,2.3,1.5,3.5,2.3
				c0,0,0.2,0.2,0.5,0.2l0,0l0.6-0.4c0.1,0,0.1-0.1,0.2-0.1c0.3-0.6,0.8-2.1,3.6-2.7c1-0.7,1.9-1.4,2.9-2c1.2-0.8,2.3-1.6,3.5-2.4
				l-0.8-0.5c-0.3-0.2-0.9-0.6-1.6-1c-0.8,0.5-1.6,1-2.4,1.4C299.5,63.5,297.9,64.3,296.3,65.2z"/>
			<path class="st0" d="M340.3,43.8c-1,0.4-5.8,3.1-11.1,6.4c-0.3,0.2-1.2,0.8-1.6,0.2c-0.3-0.6,0.4-1,1.1-1.4s8.5-5.5,10.4-7
				c0,0,1.1-0.8-0.1-0.3c0,0-5.6,3-10.7,6.2c-0.4,0.3-1.6,1-1.9,0.4s0.8-1.3,1.3-1.6c5.1-3.2,10.3-7,10.3-7c1-0.9-0.2-0.3-0.2-0.3
				c-2.2,1.1-10.1,5.9-10.8,6.3c-0.7,0.4-1.4,0.9-1.7,0.3c-0.3-0.6,0.6-1.1,1-1.4c5.3-3.4,9.8-6.5,10.6-7.3c0.8-0.7-0.2-0.4-0.2-0.4
				c-5.8,2.7-13.7,7.7-13.7,7.7c-3.5,2.2-3.8,2.9-4.3,4.5c-1.1,3.5-7.4,7.1-8.3,7.7c-1.6,1-3.1,1.9-4.7,2.8
				c-0.2,0.1-0.3,0.2-0.5,0.3c0.3,0.2,0.5,0.3,0.7,0.4l1.6,1c1.3-0.9,2.7-1.7,4-2.6c0.9-0.6,6.9-4.6,10.3-3.9
				c1.5,0.3,2.2,0.3,5.7-1.8c0,0,7.9-4.9,13-9C340.5,44.1,341.3,43.4,340.3,43.8z"/>
		</g>
	</g>
	<path class="st0" d="M316.3,23v-3.5h-2.7v-3h-2.7v-2.6h-2.7v-1.3h-2.7h-2.7H300v1.3h-2.7v2.6h-2.7v3h-2.7V23h-2.7v19.8h2.7v3.5h2.7
		V53h2.7v-3.5h2.7V53h2.7v-2.1h2.7V53h2.7v-3.5h2.7V53h2.7v-6.7h2.7v-3.5h2.7V23H316.3z M297.3,38.5h-2.7l0,0h-2.7v-5.4h2.7v-2.8
		h2.7l0,0h2.7v8.1L297.3,38.5L297.3,38.5z M308.1,44.7h-2.7l0,0h-2.7l0,0H300v-3.1h2.7v-2.2h2.7v2.2h2.7L308.1,44.7L308.1,44.7z
		 M316.3,38.5h-2.7l0,0h-2.7l0,0h-2.7v-8.1h2.7l0,0h2.7v2.8h2.7V38.5z"/>
</g>
<rect x="30.8" y="58.9" class="st0" width="1.2" height="1.3"/>
<rect x="29.6" y="58.9" class="st0" width="1.2" height="1.3"/>
<rect x="27.2" y="58.9" class="st0" width="1.2" height="1.3"/>
<rect x="24.8" y="58.9" class="st0" width="1.2" height="1.3"/>
<rect x="24.8" y="58.9" class="st0" width="1.2" height="1.3"/>
<rect x="23.6" y="58.9" class="st0" width="1.2" height="1.3"/>
<rect x="21.2" y="58.9" class="st0" width="1.2" height="1.3"/>
<rect x="18.8" y="58.9" class="st0" width="1.2" height="1.3"/>
<rect x="580.1" y="59" class="st0" width="1.2" height="1.3"/>
<rect x="567.9" y="62.4" class="st0" width="1.2" height="1.3"/>
<rect x="569.1" y="62.4" class="st0" width="1.2" height="1.3"/>
<rect x="571.6" y="62.4" class="st0" width="1.2" height="1.3"/>
<rect x="574" y="62.4" class="st0" width="1.2" height="1.3"/>
<rect x="574" y="62.4" class="st0" width="1.2" height="1.3"/>
<rect x="575.2" y="62.4" class="st0" width="1.2" height="1.3"/>
<rect x="577.7" y="62.4" class="st0" width="1.2" height="1.3"/>
<rect x="580.1" y="62.4" class="st0" width="1.2" height="1.3"/>
<rect x="18.8" y="62.4" class="st0" width="1.2" height="1.3"/>
<path class="st0" d="M33.2,58.9v1.3h244.5c-0.6-0.4-1.1-0.9-1.6-1.3H33.2z"/>
<path class="st0" d="M578.8,60.3V59H314.4c-0.7,0.4-1.4,0.8-2.3,1.3H578.8z"/>
<path class="st0" d="M310.8,63.7h256v-1.3h-257c-0.2,0.1-0.3,0.2-0.5,0.3L310.8,63.7z"/>
<path class="st0" d="M21.2,62.4v1.3h261.1c-0.6-0.4-1.2-0.9-1.8-1.3H21.2z"/>
<g>
	<g>
		<path class="st0" d="M67.7,160.6l-12-15.1h-10v15.1h-9.5V93.2h16.7c7.3,0,13.4,2.6,18.5,7.7c5.1,5.1,7.7,11.3,7.7,18.5
			c0,7.3-2.6,13.4-7.7,18.6c-1.8,1.7-3.8,3.3-5.9,4.5l14.3,18.2H67.7z M52.9,136.1c4.6,0,8.5-1.6,11.8-4.9c3.3-3.3,4.9-7.2,4.9-11.8
			c0-4.6-1.6-8.6-4.9-11.8c-3.3-3.3-7.2-4.9-11.8-4.9h-7.2v33.4H52.9z"/>
		<path class="st0" d="M93.6,102.4v31.3h23v9.2h-23v8.5h29.8v9.2h-39V93.2h39v9.2H93.6z"/>
		<path class="st0" d="M135.4,155.8c-4.2-3.6-6.4-8.4-6.4-14.4h9.1c0,3.4,1.3,6.1,4,8c2.1,1.5,4.6,2.2,7.2,2.2
			c3.3,0,6.1-0.9,8.4-2.5c2.3-1.7,3.5-4.1,3.5-7.3c0-2.1-0.7-3.8-2.1-4.9c-1.9-2-5.4-3.3-10.3-3.8c-6.9-0.8-12.2-3.3-15.9-7.3
			c-3.1-3.3-4.6-7.2-4.6-11.6c0-5.2,1.6-9.7,4.6-13.7c3.8-4.9,9.2-7.3,16-7.3c6.3,0,11.5,2,15.5,6.1c4.1,4,6.1,9.5,6.1,16.4h-9.1
			c0-3.9-0.9-7-2.8-9.3c-2.2-2.8-5.5-4.1-9.8-4.1c-4.7,0-8.1,1.9-10,5.9c-1,2-1.5,4-1.5,6c0,1.7,0.6,3.3,1.8,4.9
			c2.1,2.7,5.6,4.3,10.6,4.9c7.7,0.9,13.2,3.3,16.5,7.5c2.6,3.1,3.9,7,3.9,11.8c0,4.8-2,8.9-5.9,12.3c-4,3.4-8.9,5.2-15.1,5.2
			C143.9,160.6,139.3,159,135.4,155.8z"/>
		<path class="st0" d="M217.8,102.4h-16.5v58.2h-9.3v-58.2h-16.5v-9.2h42.3V102.4z"/>
		<path class="st0" d="M247,152.3h-27.3l-3.3,8.4h-10.1l27-67.6l27.1,67.6h-10L247,152.3z M243.3,142.9l-9.9-24.8l-9.9,24.8H243.3z"
			/>
		<path class="st0" d="M265.8,153.2c-4.9-5-7.4-11-7.4-17.9V93.2h9.2v42.1c0,4.5,1.6,8.2,4.7,11.4c3.2,3.1,7,4.7,11.4,4.7
			c4.5,0,8.3-1.6,11.4-4.7c3.1-3.1,4.7-6.9,4.7-11.4V93.2h9.2v42.1c0,7-2.5,12.9-7.4,17.9c-4.9,4.9-10.9,7.4-17.9,7.4
			C276.8,160.6,270.8,158.2,265.8,153.2z"/>
		<path class="st0" d="M346.2,160.6l-12-15.1h-10v15.1h-9.5V93.2h16.7c7.3,0,13.4,2.6,18.5,7.7c5.1,5.1,7.7,11.3,7.7,18.5
			c0,7.3-2.6,13.4-7.7,18.6c-1.8,1.7-3.8,3.3-5.9,4.5l14.3,18.2H346.2z M331.4,136.1c4.6,0,8.5-1.6,11.8-4.9
			c3.3-3.3,4.9-7.2,4.9-11.8c0-4.6-1.6-8.6-4.9-11.8c-3.3-3.3-7.2-4.9-11.8-4.9h-7.2v33.4H331.4z"/>
		<path class="st0" d="M402.5,152.3h-27.3l-3.3,8.4h-10.1l27-67.6l27.1,67.6h-10L402.5,152.3z M398.8,142.9l-9.9-24.8l-9.9,24.8
			H398.8z"/>
		<path class="st0" d="M469.5,160.6l-39.9-44.1v44.1h-9.1V93.2l40,43.4V93.2h9.1V160.6z"/>
		<path class="st0" d="M516.6,102.4h-16.5v58.2h-9.3v-58.2h-16.5v-9.2h42.3V102.4z"/>
		<path class="st0" d="M528.6,155.8c-4.2-3.6-6.4-8.4-6.4-14.4h9.1c0,3.4,1.3,6.1,4,8c2.1,1.5,4.6,2.2,7.2,2.2
			c3.3,0,6.1-0.9,8.4-2.5c2.3-1.7,3.5-4.1,3.5-7.3c0-2.1-0.7-3.8-2.1-4.9c-1.9-2-5.4-3.3-10.3-3.8c-6.9-0.8-12.2-3.3-15.9-7.3
			c-3.1-3.3-4.6-7.2-4.6-11.6c0-5.2,1.6-9.7,4.6-13.7c3.8-4.9,9.2-7.3,16-7.3c6.3,0,11.5,2,15.5,6.1c4.1,4,6.1,9.5,6.1,16.4h-9.1
			c0-3.9-0.9-7-2.8-9.3c-2.2-2.8-5.5-4.1-9.8-4.1c-4.7,0-8.1,1.9-10,5.9c-1,2-1.5,4-1.5,6c0,1.7,0.6,3.3,1.8,4.9
			c2.1,2.7,5.6,4.3,10.6,4.9c7.7,0.9,13.2,3.3,16.5,7.5c2.6,3.1,3.9,7,3.9,11.8c0,4.8-2,8.9-5.9,12.3c-4,3.4-8.9,5.2-15.1,5.2
			C537.2,160.6,532.5,159,528.6,155.8z"/>
	</g>
	<g>
		<path class="st0" d="M93.2,268.4l-46.4-51.2v51.2H36.2V190l46.4,50.4V190h10.5V268.4z"/>
		<path class="st0" d="M109.6,268.4H98.9V190h10.7V268.4z"/>
		<path class="st0" d="M176.4,261.7c-2.1,1.4-4.3,2.6-6.7,3.6c-2.3,1-4.8,1.8-7.3,2.3c-2.6,0.5-5.2,0.8-7.9,0.8
			c-2.6,0-5.3-0.3-7.9-0.8c-2.5-0.5-4.9-1.3-7.3-2.3c-2.3-1-4.6-2.2-6.7-3.6c-2.1-1.4-4-3.1-5.7-4.8c-1.8-1.8-3.4-3.7-4.8-5.8
			c-1.4-2.1-2.6-4.4-3.6-6.7c-1-2.4-1.7-4.9-2.3-7.4c-0.5-2.6-0.8-5.2-0.8-7.9s0.3-5.3,0.8-7.9c0.6-2.5,1.3-5,2.3-7.3
			c1-2.3,2.2-4.5,3.6-6.7c1.4-2.1,3-4,4.8-5.8c1.8-1.8,3.7-3.4,5.7-4.8c2.1-1.4,4.4-2.6,6.7-3.5c2.4-1.1,4.8-1.8,7.3-2.3
			c2.6-0.6,5.3-0.8,7.9-0.8c2.7,0,5.3,0.2,7.9,0.8c2.5,0.5,5,1.2,7.3,2.3c2.4,1,4.6,2.1,6.7,3.5c2,1.3,3.8,2.9,5.5,4.5l-7.1,7.1
			c-1.2-1.2-2.6-2.3-4-3.3c-1.5-1.1-3.2-2-5-2.7c-1.7-0.8-3.5-1.3-5.4-1.7c-1.9-0.4-3.9-0.6-5.8-0.6c-1.9,0-3.9,0.2-5.9,0.6
			c-1.9,0.3-3.7,0.9-5.4,1.7c-1.7,0.7-3.4,1.6-5,2.7c-1.5,1.1-3,2.2-4.3,3.5c-1.3,1.3-2.5,2.8-3.5,4.3c-1.1,1.5-1.9,3.2-2.6,4.9
			c-0.8,1.7-1.3,3.5-1.7,5.5c-0.4,1.9-0.6,3.8-0.6,5.8c0,2,0.2,3.9,0.6,5.9c0.4,1.8,1,3.6,1.7,5.4c0.7,1.7,1.6,3.4,2.6,4.9
			c1.1,1.5,2.2,3,3.5,4.3c1.3,1.3,2.8,2.5,4.3,3.5c1.6,1.1,3.3,2,5,2.7c1.7,0.8,3.5,1.3,5.4,1.7c2,0.4,4,0.6,5.9,0.6
			c2,0,3.9-0.2,5.8-0.6c1.9-0.4,3.7-0.9,5.4-1.7c1.8-0.7,3.4-1.6,5-2.7c1.6-1.1,3-2.2,4.3-3.5c1.3-1.3,2.5-2.8,3.6-4.3
			c1.1-1.6,2-3.2,2.6-4.9c0.8-1.8,1.3-3.6,1.7-5.4l0.2-0.8h-20.5v-10.2h31v5.1c0,2.7-0.2,5.3-0.8,7.9c-0.5,2.5-1.2,5-2.3,7.4
			c-1,2.3-2.2,4.5-3.6,6.7c-1.4,2.1-3,4-4.8,5.8C180.5,258.7,178.5,260.3,176.4,261.7z"/>
		<path class="st0" d="M252,190v78.3h-10.6v-20.5h-31.3v20.5h-10.7V190h10.7v47.1h31.3V190H252z"/>
		<path class="st0" d="M306.8,200.8h-19.2v67.6h-10.8v-67.6h-19.2V190h49.1V200.8z"/>
		<path class="st0" d="M349.3,268.4L323,227.6v40.7h-10.5V190l36.8,56.4l36.8-56.4v78.3h-10.5v-40.7L349.3,268.4z"/>
		<path class="st0" d="M437.9,258.7h-31.7l-3.9,9.7h-11.7l31.4-78.5l31.4,78.5h-11.6L437.9,258.7z M433.5,247.8L422,219.1
			l-11.4,28.8H433.5z"/>
		<path class="st0" d="M495.9,268.4l-13.9-17.5h-11.6v17.5h-11.1V190h19.4c8.4,0,15.6,3,21.5,8.9c5.9,5.9,8.9,13.1,8.9,21.5
			c0,8.4-3,15.6-8.9,21.5c-2.1,2-4.4,3.8-6.9,5.2l16.6,21.2H495.9z M478.8,239.8c5.4,0,9.9-1.9,13.7-5.7c3.8-3.8,5.7-8.3,5.7-13.7
			c0-5.4-1.9-10-5.7-13.7c-3.8-3.8-8.3-5.7-13.7-5.7h-8.3v38.8H478.8z"/>
		<path class="st0" d="M526,200.7v36.4h26.7v10.7H526v9.8h34.6v10.7h-45.3V190h45.3v10.7H526z"/>
	</g>
</g>
</svg>
